<svg width="620" height="615" viewBox="0 0 620 615" fill="none" xmlns="http://www.w3.org/2000/svg">
	<path
		d="M302.779 595.519C463.38 595.519 593.572 465.317 593.572 304.704C593.572 144.092 463.38 13.8896 302.779 13.8896C142.179 13.8896 11.9863 144.092 11.9863 304.704C11.9863 465.317 142.179 595.519 302.779 595.519Z"
		fill="#038C6B" fill-opacity="0.5" />
	<path
		d="M49.8398 242.859L48.3223 242.598C48.3993 242.151 56.3951 197.569 87.3078 163.38L88.4478 164.413C57.8356 198.27 49.9168 242.42 49.8398 242.859Z"
		fill="white" />
	<path
		d="M91.9761 135.123L90.7051 134.26C90.9516 133.898 115.694 98.0066 155.388 80.4961L156.012 81.9059C116.734 99.2315 92.2226 134.769 91.9761 135.123Z"
		fill="white" />
	<path
		d="M576.595 299.428H575.054C575.054 244.138 549.965 194.026 549.711 193.525L551.082 192.832C551.336 193.332 576.595 243.761 576.595 299.428Z"
		fill="white" />
	<path
		d="M546.599 270.6C545.413 248.575 538.241 230.04 538.172 229.855L539.605 229.293C539.674 229.478 546.93 248.236 548.14 270.515L546.599 270.6Z"
		fill="white" />
	<path
		d="M1.50983 232.382L0 232.059C0.0924375 231.612 9.82149 187.262 43.9155 142.441L45.1403 143.374C11.2543 187.924 1.60227 231.943 1.50983 232.382Z"
		fill="black" />
	<path
		d="M49.6688 108.437L48.4902 107.451C48.5827 107.343 57.6184 96.5734 69.1423 85.6958L70.1976 86.8128C58.7354 97.6288 49.7536 108.329 49.6688 108.437Z"
		fill="black" />
	<path
		d="M87.7685 86.7589L86.5977 85.7574C86.7286 85.6033 99.9317 70.35 125.129 53.1553C148.369 37.2934 186.869 16.478 238.334 7.34912L238.603 8.86675C187.408 17.9494 149.108 38.657 125.999 54.4264C100.964 71.5056 87.8917 86.6048 87.7685 86.7589Z"
		fill="black" />
	<path
		d="M592.833 205.589C579.869 152.741 538.734 107.12 538.318 106.665L539.458 105.625C539.874 106.08 581.271 152.002 594.328 205.219L592.833 205.589Z"
		fill="black" />
	<path
		d="M604.256 282.526C602.723 263.305 599.056 246.48 596.252 235.749L597.746 235.356C600.566 246.149 604.256 263.066 605.796 282.402L604.256 282.526Z"
		fill="black" />
	<path
		d="M612.613 355.172L611.111 354.825C612.436 349.093 613.592 342.877 614.547 336.352L616.072 336.575C615.109 343.139 613.938 349.394 612.613 355.172Z"
		fill="black" />
	<path
		d="M618.923 307.74L617.382 307.655C618.591 285.469 617.521 264.075 614.709 254.423L616.188 253.991C619.046 263.798 620.14 285.399 618.923 307.74Z"
		fill="black" />
	<path
		d="M594.68 377.928L593.217 377.458C595.921 369.046 598.216 357.336 600.042 342.676L601.567 342.869C599.734 357.621 597.415 369.416 594.68 377.928Z"
		fill="black" />
	<path
		d="M602.955 329.996L601.422 329.857C601.984 323.756 602.231 319.703 602.231 319.657L603.771 319.75C603.764 319.788 603.517 323.879 602.955 329.996Z"
		fill="black" />
	<path
		d="M446.967 39.6742C406.595 13.9747 338.977 5.14621 338.299 5.06147L338.491 3.53613C338.661 3.55924 355.785 5.7625 377.7 11.132C397.944 16.0932 426.53 24.8446 447.799 38.38L446.967 39.6742Z"
		fill="black" />
	<path
		d="M413.288 12.0101C402.457 7.23378 377.291 1.55615 377.037 1.50222L377.376 0C377.63 0.0539259 402.943 5.76237 413.912 10.608L413.288 12.0101Z"
		fill="black" />
	<path
		d="M85.5513 527.018C82.2852 524.437 79.0576 521.733 75.9609 518.991L76.9854 517.835C80.0667 520.562 83.2712 523.251 86.5142 525.808L85.5513 527.018Z"
		fill="black" />
	<path
		d="M59.5214 502.829C15.3748 454.68 6.91677 402.141 6.83203 401.617L8.35728 401.386C8.43431 401.91 16.8384 454.003 60.6538 501.789L59.5214 502.829Z"
		fill="black" />
	<path
		d="M71.6243 498.845C55.8174 485.811 41.0428 456.067 40.8965 455.766L42.2753 455.088C42.4217 455.381 57.0576 484.832 72.6025 497.659L71.6243 498.845Z"
		fill="black" />
	<path
		d="M224.731 597.761C202.261 593.463 180.061 585.821 158.746 575.043L159.439 573.664C180.631 584.372 202.692 591.968 225.024 596.244L224.731 597.761Z"
		fill="black" />
	<path
		d="M131.524 559.165C120.478 551.77 114.292 546.285 114.23 546.231L115.255 545.083C115.317 545.137 121.433 550.56 132.379 557.887L131.524 559.165Z"
		fill="black" />
	<path
		d="M316.729 613.947L316.652 612.406C322.353 612.128 327.93 611.697 333.222 611.127L333.391 612.66C328.068 613.238 322.461 613.669 316.729 613.947Z"
		fill="black" />
	<path
		d="M296.478 614.301C261.213 613.916 231.664 608.631 231.363 608.577L231.641 607.06C231.933 607.113 261.367 612.383 296.493 612.76L296.478 614.301Z"
		fill="black" />
	<path
		d="M127.934 513.228C79.3429 479.155 61.4408 425.106 61.2637 424.566L62.7273 424.089C62.9045 424.628 80.6601 478.2 128.82 511.965L127.934 513.228Z"
		fill="white" />
	<path
		d="M234.175 572.185C196.036 565.482 157.852 539.952 157.475 539.69L158.337 538.412C158.715 538.666 196.637 564.019 234.444 570.659L234.175 572.185Z"
		fill="white" />
	<path
		d="M171.432 525.878C161.28 522.696 149.024 511.333 148.508 510.856L149.555 509.731C149.679 509.847 162.073 521.333 171.887 524.414L171.432 525.878Z"
		fill="white" />
</svg>