<?xml version="1.0" encoding="utf-8"?>
<!-- Generator: Adobe Illustrator 27.7.0, SVG Export Plug-In . SVG Version: 6.00 Build 0)  -->
<svg version="1.1" id="Camada_1" xmlns="http://www.w3.org/2000/svg" xmlns:xlink="http://www.w3.org/1999/xlink" x="0px" y="0px"
	 viewBox="0 0 241.5 82.6" style="enable-background:new 0 0 241.5 82.6;" xml:space="preserve">
<style type="text/css">
	.st0{fill:#008C6B;}
</style>
<g>
	<path d="M64.5,66.9L35.2,40.4v26.5H22.3V15.6H26l29.1,26.9V15.6H68v51.2H64.5z"/>
	<rect x="94.6" y="35.4" class="st0" width="49.3" height="10.7"/>
	<polygon points="91.6,55.5 118,55.5 118,66.9 78.8,66.9 78.8,15.6 118,15.6 118,27 91.6,27 	"/>
	<path class="st0" d="M157.5,41.8l-8.1,9.4l0,0c-0.9,1.2-1.8,2.4-2.8,3.8c-1,1.4-1.9,2.7-2.9,4.1c-1,1.4-2,2.8-2.9,4.1
		c-1,1.4-1.9,2.6-2.7,3.7h-16.1l16-20.8h5.9V35.4h-7.1l-15-19.7H138l11.3,16.2l0.1,0.1l0,0l7.9,9.5L157.5,41.8L157.5,41.8z"/>
	<polyline points="151,53.5 159,43.3 176.9,66.9 160.6,66.9 	"/>
	<polygon points="176.9,15.6 158.7,39.8 151.1,29.4 160.7,15.6 	"/>
	<path d="M220.6,27h-13.9v39.8h-13V27h-13.9V15.6h40.7V27z"/>
	<path d="M258.4,56.5"/>
</g>
<polygon class="st0" points="138.2,66.9 157.5,41.8 138,15.6 144.1,35.7 "/>
</svg>
