<svg width="110" height="28" viewBox="0 0 110 28" fill="none" xmlns="http://www.w3.org/2000/svg">
<path d="M23.409 28L7.15583 13.5361V28H0V0H2.05245L18.1947 14.6823V0H25.3505V27.9454H23.409V28Z" fill="white"/>
<path d="M67.4534 10.807H40.1059V16.6472H67.4534V10.807Z" fill="#008C6B"/>
<path d="M38.4418 21.7778H53.0862V28H31.3414V0H53.0862V6.22222H38.4418V21.7778Z" fill="white"/>
<path d="M74.9975 14.3002L70.5043 19.4308C70.005 20.0858 69.5058 20.7407 68.9511 21.5049C68.3964 22.269 67.8971 22.9786 67.3424 23.7427C66.7877 24.5068 66.233 25.271 65.7337 25.9805C65.179 26.7446 64.6798 27.3996 64.236 28H55.3051L64.1805 16.6472L67.4534 16.6472V10.807L63.5149 10.807L55.1942 0.0545806H64.1805L70.4488 8.89668L70.5043 8.95127L74.8865 14.1364L74.9975 14.3002Z" fill="#008C6B"/>
<path d="M71.3918 20.6862L75.8296 15.1189L85.7589 28H76.7171" fill="white"/>
<path d="M85.7589 0L75.6631 13.2086L71.4473 7.53216L76.7726 0H85.7589Z" fill="white"/>
<path d="M110 6.22222H102.289V27.9454H95.0782V6.22222H87.3676V0H109.945V6.22222H110Z" fill="white"/>
<path d="M64.2915 28L74.9975 14.3002L64.1805 0L67.5643 10.9708L64.2915 28Z" fill="#008C6B"/>
</svg>
