<?xml version="1.0" encoding="utf-8"?>
<!-- Generator: Adobe Illustrator 27.7.0, SVG Export Plug-In . SVG Version: 6.00 Build 0)  -->
<svg version="1.1" id="Camada_1" xmlns="http://www.w3.org/2000/svg" xmlns:xlink="http://www.w3.org/1999/xlink" x="0px" y="0px"
	 viewBox="0 0 500 500" style="enable-background:new 0 0 500 500;" xml:space="preserve">
<style type="text/css">
	.st0{fill:none;stroke:#000000;stroke-width:25;stroke-linecap:round;stroke-miterlimit:10;}
	.st1{fill:none;stroke:#000000;stroke-width:12;stroke-linejoin:round;}
	.st2{fill:none;stroke:#000000;stroke-width:12;stroke-linejoin:round;stroke-dasharray:19.6746,14.756;}
	.st3{fill:none;stroke:#000000;stroke-width:12;stroke-linejoin:round;stroke-dasharray:19.6685,14.7514;}
	.st4{fill:none;stroke:#000000;stroke-width:12;stroke-linejoin:round;stroke-dasharray:21.1153,15.8365;}
	.st5{fill:none;stroke:#000000;stroke-width:12;stroke-linejoin:round;stroke-dasharray:19.7945,14.8459;}
	.st6{fill:#020203;}
	.st7{fill:#FFFFFF;}
</style>
<path class="st0" d="M369,396.8H151.6c-22.1,0-40.1-17.9-40.1-40.1V139.3c0-22.1,17.9-40.1,40.1-40.1H369
	c22.1,0,40.1,17.9,40.1,40.1v217.4C409.1,378.9,391.1,396.8,369,396.8z"/>
<g>
	<g>
		<g>
			<line class="st1" x1="148.2" y1="343.6" x2="148.3" y2="333.6"/>
			<line class="st2" x1="148.5" y1="318.8" x2="150.5" y2="154.1"/>
			<polyline class="st1" points="150.6,146.7 150.7,136.7 160.7,136.7 			"/>
			<line class="st3" x1="175.5" y1="136.7" x2="340.2" y2="136.7"/>
			<line class="st1" x1="347.6" y1="136.7" x2="357.6" y2="136.7"/>
		</g>
	</g>
</g>
<g>
	<g>
		<polyline class="st1" points="158.1,350.3 151,357.3 161,357.3 		"/>
		<line class="st4" x1="176.8" y1="357.3" x2="353.7" y2="357.3"/>
		<polyline class="st1" points="361.6,357.3 371.6,357.3 371.6,347.3 		"/>
		<line class="st4" x1="371.6" y1="331.5" x2="371.6" y2="154.7"/>
		<polyline class="st1" points="371.6,146.7 371.6,136.7 364.5,143.8 		"/>
		<polyline class="st5" points="354,154.3 261.3,247 163.3,345 		"/>
	</g>
</g>
<g>
	<path class="st6" d="M261.1,445.2c-4.2,0-8.1-1.6-11.1-4.6c-4-4-5.5-10-3.9-15.5l15.7-53.2c2.1-7.1,5.9-13.5,11.1-18.7l106.7-106.7
		l64.6,64.6L337.4,417.8c-5.1,5.1-11.6,9-18.7,11.1l-53.2,15.7C264,445,262.6,445.2,261.1,445.2
		C261.1,445.2,261.1,445.2,261.1,445.2z M382.5,243.6l26.4-26.4h0.1c6.1-5.4,13.8-8.3,22-8.3c8.9,0,17.3,3.5,23.6,9.8l17.4,17.5
		c6.3,6.3,9.8,14.7,9.8,23.6c0,8.9-3.5,17.3-9.8,23.6l-25,25L382.5,243.6z"/>
	<path class="st7" d="M431,213.9c7.2,0,14.5,2.8,20,8.3l17.4,17.5c11.1,11.1,11.1,29,0,40l-21.4,21.4l-57.5-57.5l21.4-21.4h0
		C416.6,216.7,423.8,213.9,431,213.9 M379.6,253.6l57.5,57.5L333.9,414.3c-4.6,4.6-10.3,8-16.5,9.8l-53.2,15.7c-1,0.3-2,0.4-2.9,0.4
		c-2.8,0-5.5-1.1-7.5-3.1c-2.7-2.7-3.8-6.8-2.7-10.5l15.7-53.2c1.9-6.2,5.2-11.9,9.8-16.5L379.6,253.6 M431,203.9
		c-8.8,0-17.1,2.9-23.8,8.3h-0.3l-3,2.9l-21.4,21.4l-2.9,2.9l0,0l-7.1,7.1L269.4,349.7c-5.7,5.7-10,12.9-12.3,20.8l-15.7,53.3
		c-2.1,7.3-0.2,15.1,5.2,20.4c3.9,3.9,9.1,6,14.6,6c1.9,0,3.8-0.3,5.7-0.8l0,0l0,0l53.2-15.7c7.9-2.3,15.1-6.6,20.8-12.3
		l103.2-103.2l7.1-7.1l0,0l2.9-2.9l21.4-21.4c7.2-7.2,11.2-16.9,11.2-27.1c0-10.2-4-19.9-11.2-27.1l-17.4-17.5
		C450.9,207.9,441.3,203.9,431,203.9L431,203.9z"/>
</g>
</svg>
